<svg display="none" xmlns="http://www.w3.org/2000/svg">
  <symbol fill="none" width="37" height="37" viewBox="0 0 37 37" id="yandex">
    <rect x="1" y="1" width="35" height="35" rx="5" fill="#DBA833" />
    <path
      d="M21.3286 21.3282C19.0239 23.7063 18.8562 26.6711 18.6572 33.1663C24.7124 33.1663 28.8924 33.1454 31.0505 31.0502C33.1458 28.8921 33.1667 24.513 33.1667 18.6568C26.6715 18.8663 23.7067 19.0235 21.3286 21.3282ZM3.83337 18.6568C3.83337 24.513 3.85433 28.8921 5.94956 31.0502C8.10766 33.1454 12.2877 33.1663 18.3429 33.1663C18.1334 26.6711 17.9762 23.7063 15.6715 21.3282C13.2934 19.0235 10.3286 18.8559 3.83337 18.6568ZM18.3429 3.83301C12.2981 3.83301 8.10766 3.85396 5.94956 5.9492C3.85433 8.10729 3.83337 12.4863 3.83337 18.3425C10.3286 18.133 13.2934 17.9759 15.6715 15.6711C17.9762 13.293 18.1439 10.3282 18.3429 3.83301ZM21.3286 15.6711C19.0239 13.293 18.8562 10.3282 18.6572 3.83301C24.7124 3.83301 28.8924 3.85396 31.0505 5.9492C33.1458 8.10729 33.1667 12.4863 33.1667 18.3425C26.6715 18.133 23.7067 17.9759 21.3286 15.6711Z"
      fill="black"
    />
    <path
      d="M33.1667 18.6568V18.3425C26.6715 18.133 23.7067 17.9759 21.3286 15.6711C19.0239 13.293 18.8562 10.3282 18.6572 3.83301H18.3429C18.1334 10.3282 17.9762 13.293 15.6715 15.6711C13.2934 17.9759 10.3286 18.1435 3.83337 18.3425V18.6568C10.3286 18.8663 13.2934 19.0235 15.6715 21.3282C17.9762 23.7063 18.1439 26.6711 18.3429 33.1663H18.6572C18.8667 26.6711 19.0239 23.7063 21.3286 21.3282C23.7067 19.0235 26.6715 18.8559 33.1667 18.6568Z"
      fill="#DBA833"
    />
    <rect
      x="1"
      y="1"
      width="35"
      height="35"
      rx="5"
      stroke="black"
      stroke-width="2"
    />
  </symbol>

  <symbol width="37" height="37" viewBox="0 0 37 37" fill="none" id="vk">
    <rect x="1" y="1" width="35" height="35" rx="5" fill="#DBA833" />
    <path
      d="M29.06 4.63965H7.94001C6.11841 4.63965 4.64001 6.11805 4.64001 7.93965V29.0596C4.64001 30.8812 6.11841 32.3596 7.94001 32.3596H29.06C30.8816 32.3596 32.36 30.8812 32.36 29.0596V7.93965C32.36 6.11805 30.8816 4.63965 29.06 4.63965ZM26.8952 23.7796L24.4334 23.773C24.4334 23.773 24.3806 23.7796 24.2948 23.7796C24.0968 23.7796 23.6876 23.7268 23.2058 23.3968C22.3412 22.7962 21.5162 21.3046 20.8628 21.3046C20.8166 21.3046 20.777 21.3112 20.7374 21.3244C20.1698 21.5026 19.9982 22.0702 19.9982 22.7632C19.9982 23.0074 19.8266 23.1196 19.3646 23.1196H18.0908C16.6652 23.1196 15.2858 23.0866 13.7348 21.3904C11.4512 18.889 9.31281 14.4406 9.31281 14.4406C9.31281 14.4406 9.19401 14.1832 9.31941 14.0314C9.43821 13.8928 9.71541 13.8796 9.82101 13.8796C9.84741 13.8796 9.86061 13.8796 9.86061 13.8796H12.5006C12.5006 13.8796 12.7448 13.9258 12.923 14.0578C13.0748 14.17 13.154 14.3746 13.154 14.3746C13.154 14.3746 13.6028 15.2458 14.1638 16.2292C15.1076 17.8528 15.6158 18.394 15.9788 18.394C16.0382 18.394 16.0976 18.3808 16.157 18.3478C16.6982 18.0508 16.5398 15.6484 16.5398 15.6484C16.5398 15.6484 16.5464 14.7772 16.2626 14.3944C16.0448 14.0908 15.629 14.005 15.4442 13.9786C15.299 13.9588 15.5366 13.6156 15.8534 13.4572C16.2626 13.2592 16.9424 13.2196 17.7608 13.2196H18.1568C18.929 13.2328 18.9488 13.312 19.2524 13.3846C20.1632 13.6024 19.853 14.4538 19.853 16.4932C19.853 17.1466 19.7342 18.064 20.2028 18.3742C20.2358 18.394 20.282 18.4072 20.3414 18.4072C20.645 18.4072 21.2984 18.0178 22.3412 16.2556C22.922 15.2524 23.3708 14.2558 23.3708 14.2558C23.3708 14.2558 23.4698 14.0776 23.6216 13.9852C23.7668 13.8994 23.7668 13.8994 23.9582 13.8994H23.978C24.1892 13.8994 26.288 13.8796 26.75 13.8796H26.8028C27.245 13.8796 27.6476 13.8862 27.7202 14.1568C27.8258 14.566 27.3968 15.2986 26.2682 16.8166C24.407 19.3048 24.1958 19.12 25.7402 20.5588C27.2186 21.9316 27.5222 22.5982 27.575 22.684C28.1888 23.7004 26.8952 23.7796 26.8952 23.7796Z"
      fill="black"
    />
    <rect
      x="1"
      y="1"
      width="35"
      height="35"
      rx="5"
      stroke="black"
      stroke-width="2"
    />
  </symbol>

  <symbol width="37" height="37" viewBox="0 0 37 37" fill="none" id="whatsapp">
    <rect x="1" y="1" width="35" height="35" rx="5" fill="#DBA833" />
    <path
      d="M18.5 5.2998C11.2103 5.2998 5.30005 11.2101 5.30005 18.4998C5.30005 20.9761 5.99562 23.2849 7.18208 25.2652L5.41821 31.6998L11.9903 29.9746C13.9123 31.0674 16.1312 31.6998 18.5 31.6998C25.7897 31.6998 31.7001 25.7895 31.7001 18.4998C31.7001 11.2101 25.7897 5.2998 18.5 5.2998ZM13.9819 12.3424C14.1964 12.3424 14.4168 12.3411 14.6071 12.351C14.8425 12.3565 15.0987 12.3737 15.344 12.916C15.6355 13.5606 16.2702 15.1777 16.3516 15.3416C16.433 15.5055 16.4907 15.6986 16.3774 15.9131C16.2696 16.1331 16.2135 16.2662 16.0551 16.4609C15.8912 16.6501 15.7116 16.8851 15.5631 17.0281C15.3992 17.192 15.23 17.3717 15.4192 17.6984C15.6084 18.0251 16.2655 19.0961 17.2368 19.9607C18.4853 21.0761 19.5387 21.4189 19.8665 21.5828C20.1943 21.7467 20.3841 21.7212 20.5733 21.5012C20.768 21.2867 21.391 20.5507 21.611 20.2229C21.8255 19.8951 22.0445 19.9518 22.3415 20.0596C22.6429 20.1674 24.2502 20.9591 24.578 21.123C24.9058 21.2869 25.1207 21.3681 25.2032 21.5012C25.2879 21.6387 25.288 22.2932 25.0163 23.0566C24.7446 23.8189 23.4104 24.5561 22.812 24.6078C22.2081 24.6639 21.6445 24.8793 18.8868 23.7936C15.5604 22.4835 13.4626 19.0764 13.2987 18.8564C13.1348 18.6419 11.9667 17.0851 11.9667 15.4791C11.9667 13.8676 12.8116 13.0784 13.1075 12.7506C13.4089 12.4228 13.7619 12.3424 13.9819 12.3424Z"
      fill="black"
    />
    <rect
      x="1"
      y="1"
      width="35"
      height="35"
      rx="5"
      stroke="black"
      stroke-width="2"
    />
  </symbol>

  <symbol width="35" height="35" viewBox="0 0 35 35" fill="none" id="telegram">
    <rect x="1" y="1" width="33" height="33" rx="5" fill="#DBA833" />
    <path
      d="M30.6049 6.06163C30.1399 5.66731 29.4096 5.61089 28.6544 5.91407H28.6532C27.859 6.23275 6.17136 15.5352 5.28848 15.9153C5.1279 15.9711 3.72546 16.4944 3.86992 17.66C3.99888 18.7109 5.12604 19.1461 5.26368 19.1963L10.7773 21.0842C11.1431 22.3019 12.4916 26.7944 12.7899 27.7542C12.9759 28.3525 13.279 29.1387 13.8104 29.3005C14.2766 29.4803 14.7404 29.316 15.0405 29.0804L18.4114 25.9537L23.8531 30.1976L23.9827 30.2751C24.3522 30.4388 24.7063 30.5206 25.0442 30.5206C25.3052 30.5206 25.5557 30.4717 25.795 30.3737C26.6103 30.0389 26.9364 29.262 26.9705 29.174L31.0352 8.04625C31.2832 6.91785 30.9385 6.34373 30.6049 6.06163ZM15.64 21.8394L13.78 26.7994L11.92 20.5994L26.18 10.0594L15.64 21.8394Z"
      fill="black"
    />
    <rect
      x="1"
      y="1"
      width="33"
      height="33"
      rx="5"
      stroke="black"
      stroke-width="2"
    />
  </symbol>

  <symbol width="21" height="25" viewBox="0 0 21 25" fill="none" id="door">
    <path
      d="M3.98958 3.125C2.41678 3.125 1.125 4.41678 1.125 5.98958V19.0104C1.125 20.5832 2.41678 21.875 3.98958 21.875H13.3646C14.9374 21.875 16.2292 20.5832 16.2292 19.0104C16.2306 18.9069 16.2115 18.8041 16.1729 18.708C16.1343 18.612 16.077 18.5245 16.0043 18.4508C15.9316 18.3771 15.845 18.3185 15.7495 18.2786C15.654 18.2386 15.5515 18.218 15.4479 18.218C15.3444 18.218 15.2419 18.2386 15.1464 18.2786C15.0509 18.3185 14.9642 18.3771 14.8915 18.4508C14.8188 18.5245 14.7615 18.612 14.7229 18.708C14.6843 18.8041 14.6652 18.9069 14.6667 19.0104C14.6667 19.7387 14.0928 20.3125 13.3646 20.3125H3.98958C3.26134 20.3125 2.6875 19.7387 2.6875 19.0104V5.98958C2.6875 5.26134 3.26134 4.6875 3.98958 4.6875H13.3646C14.0928 4.6875 14.6667 5.26134 14.6667 5.98958C14.6652 6.09311 14.6843 6.19589 14.7229 6.29196C14.7615 6.38803 14.8188 6.47547 14.8915 6.54919C14.9642 6.62292 15.0509 6.68146 15.1464 6.72142C15.2419 6.76138 15.3444 6.78196 15.4479 6.78196C15.5515 6.78196 15.654 6.76138 15.7495 6.72142C15.845 6.68146 15.9316 6.62292 16.0043 6.54919C16.077 6.47547 16.1343 6.38803 16.1729 6.29196C16.2115 6.19589 16.2306 6.09311 16.2292 5.98958C16.2292 4.41678 14.9374 3.125 13.3646 3.125H3.98958ZM15.4398 8.06478C15.2843 8.06482 15.1324 8.11124 15.0034 8.19811C14.8745 8.28498 14.7744 8.40835 14.7159 8.55243C14.6575 8.69651 14.6434 8.85475 14.6754 9.0069C14.7074 9.15905 14.784 9.2982 14.8955 9.40653L17.2078 11.7188H6.07292C5.96939 11.7173 5.86661 11.7364 5.77054 11.775C5.67447 11.8136 5.58703 11.8709 5.51331 11.9436C5.43958 12.0163 5.38104 12.1029 5.34108 12.1984C5.30112 12.294 5.28054 12.3965 5.28054 12.5C5.28054 12.6035 5.30112 12.706 5.34108 12.8016C5.38104 12.8971 5.43958 12.9837 5.51331 13.0564C5.58703 13.1291 5.67447 13.1864 5.77054 13.225C5.86661 13.2636 5.96939 13.2827 6.07292 13.2812H17.2078L14.8955 15.5935C14.8206 15.6655 14.7607 15.7517 14.7195 15.8471C14.6782 15.9425 14.6565 16.0452 14.6554 16.1491C14.6543 16.2531 14.674 16.3562 14.7133 16.4524C14.7526 16.5486 14.8107 16.636 14.8842 16.7095C14.9577 16.783 15.0451 16.8411 15.1414 16.8804C15.2376 16.9197 15.3407 16.9394 15.4446 16.9384C15.5486 16.9373 15.6512 16.9155 15.7467 16.8743C15.8421 16.833 15.9283 16.7732 16.0003 16.6982L19.6461 13.0524C19.7926 12.9058 19.8748 12.7072 19.8748 12.5C19.8748 12.2928 19.7926 12.0941 19.6461 11.9476L16.0003 8.3018C15.9275 8.22681 15.8403 8.16719 15.7441 8.12647C15.6478 8.08576 15.5443 8.06478 15.4398 8.06478Z"
      fill="white"
    />
  </symbol>

  <symbol
    width="107"
    height="107"
    viewBox="0 0 107 107"
    fill="none"
    id="heating-left"
  >
    <path
      fill-rule="evenodd"
      clip-rule="evenodd"
      d="M51.854 87.0141L51.8544 87.0133C51.8569 87.0082 51.8594 87.0031 51.862 86.998C51.8593 87.0033 51.8566 87.0087 51.854 87.0141ZM88.8908 87.0174L88.8928 87.0133C88.8954 87.0082 88.8979 87.0031 88.9004 86.998C88.8972 87.0044 88.894 87.0109 88.8908 87.0174ZM89.6991 29.7789C89.6991 29.7788 89.6991 29.7788 89.6991 29.7788C89.6984 29.7768 89.6977 29.7747 89.697 29.7727C89.6977 29.7747 89.6984 29.7768 89.6991 29.7789ZM88.9951 28.0408C88.9951 28.0408 88.9951 28.0408 88.9951 28.0408C88.9931 28.0367 88.9911 28.0326 88.9891 28.0284C88.9911 28.0326 88.9931 28.0367 88.9951 28.0408ZM19.7791 24.0317L20.5282 25.0814C23.1375 30.3872 23.1614 36.4547 20.6001 41.7744L20.4892 41.8853L15.8387 50.7877L15.8315 50.8021C13.6028 55.241 13.6028 59.6039 15.8315 64.0428L15.8387 64.0572L20.9084 73.762H20.9713C23.0139 78.5687 23.0139 83.9889 20.9713 88.7956H20.8971L13.0377 104.146L9.36792 102.18L18.2011 85.0661H17.7133C18.7005 81.5768 18.3217 78.0694 16.5769 74.5941L16.5697 74.5798L12.069 65.9642C9.35286 60.5354 9.35527 54.2936 12.0762 48.8662L12.2883 48.4432V48.3388L16.5669 40.2706L16.5769 40.2507C18.8056 35.8118 18.8056 31.3203 16.5769 26.8814L16.5374 26.8028L15.7533 25.5329L11.09 15.9976L5.86523 18.4622L8.09246 3.31702L20.9441 11.3493L14.9289 14.2532L19.7791 24.0317ZM57.9304 26.0492H58.0105C60.1694 31.1162 60.0454 36.7755 57.6385 41.7744L57.5277 41.8853L52.8772 50.7877L52.8699 50.8021C50.6413 55.241 50.6413 59.6039 52.8699 64.0428L52.8772 64.0572L57.9468 73.762H58.0098C60.0524 78.5687 60.0524 83.9889 58.0098 88.7956H57.9356L50.0761 104.146L46.4064 102.18L55.2395 85.0661H54.7517C55.739 81.5768 55.3602 78.0694 53.6154 74.5941L53.6081 74.5798L49.1075 65.9642C46.3913 60.5354 46.3937 54.2936 49.1147 48.8662L49.3268 48.4432V48.3388L53.6054 40.2706L53.6154 40.2507C55.3602 36.7755 55.739 33.268 54.7517 29.7788H55.2541L48.0835 16.0189L42.9037 18.4622L45.1309 3.31702L57.9826 11.3493L51.9509 14.2611L57.9304 26.0492ZM94.9689 26.0492H95.049C97.2079 31.1162 97.0839 36.7755 94.677 41.7744L94.5661 41.8853L89.9156 50.7877L89.9084 50.8021C87.6797 55.241 87.6797 59.6039 89.9084 64.0428L89.9156 64.0572L94.9853 73.762H95.0482C97.0909 78.5687 97.0909 83.9889 95.0482 88.7956H94.9741L87.1146 104.146L83.4448 102.18L92.278 85.0661H91.7902C92.7775 81.5768 92.3986 78.0694 90.6538 74.5941L90.6466 74.5798L86.1459 65.9642C83.4298 60.5354 83.4322 54.2936 86.1531 48.8662L86.3652 48.4432V48.3388L90.6438 40.2706L90.6538 40.2507C92.3986 36.7755 92.7775 33.268 91.7902 29.7788H92.2926L85.1219 16.0189L79.9422 18.4622L82.1694 3.31702L95.021 11.3493L88.9894 14.2611L94.9689 26.0492Z"
      fill="#DBA833"
    />
  </symbol>

  <symbol
    width="136"
    height="148"
    viewBox="0 0 136 148"
    fill="none"
    id="heating-center"
  >
    <path
      d="M50.267 26.0004C49.3084 26.0154 48.3949 26.4103 47.7272 27.0985C47.0594 27.7866 46.6921 28.7116 46.7059 29.6704C46.7059 43.2385 42.0507 49.1219 36.8421 54.6206C34.2379 57.3699 31.4124 59.9238 29.0746 63.1713C26.7367 66.4188 25 70.5039 25 75.5004C25 79.9764 26.667 83.6288 29.3195 85.7377C31.972 87.8466 35.0073 88.4898 37.7466 89.026C40.4858 89.5623 43.0427 89.967 44.9018 90.7079C46.7608 91.4488 47.8463 92.2417 48.6796 94.1188L48.7173 94.1989L48.7549 94.2743C51.9601 100.652 59.1968 103.263 66 103.263C72.8032 103.263 80.0399 100.652 83.2451 94.2743L83.2827 94.1989L83.3204 94.1188C84.1537 92.2417 85.2392 91.4488 87.0982 90.7079C88.9573 89.967 91.5142 89.5623 94.2534 89.026C96.9927 88.4898 100.028 87.8466 102.68 85.7377C105.333 83.6288 107 79.9764 107 75.5004C107 70.5039 105.263 66.4188 102.925 63.1713C100.588 59.9238 97.7621 57.3699 95.1579 54.6206C89.9493 49.1219 85.2941 43.2385 85.2941 29.6704C85.3009 29.191 85.2123 28.715 85.0336 28.27C84.8548 27.8251 84.5894 27.4202 84.2528 27.0787C83.9162 26.7373 83.5151 26.4662 83.0728 26.2811C82.6305 26.096 82.1559 26.0007 81.6765 26.0007C81.197 26.0007 80.7224 26.096 80.2801 26.2811C79.8378 26.4662 79.4367 26.7373 79.1001 27.0787C78.7635 27.4202 78.4981 27.8251 78.3194 28.27C78.1406 28.715 78.052 29.191 78.0588 29.6704C78.0588 45.0476 84.2566 53.6368 89.901 59.5956C92.7232 62.575 95.3242 64.996 97.0562 67.4019C98.7882 69.8078 99.7647 72.0545 99.7647 75.5004C99.7647 78.4898 99.1303 79.3171 98.1773 80.0749C97.2242 80.8326 95.3461 81.4405 92.8639 81.9264C90.3817 82.4123 87.4113 82.7988 84.4227 83.9898C81.4341 85.1809 78.3578 87.4647 76.7069 91.1837L76.7823 91.0236C75.3086 93.9561 70.8698 96.0268 66 96.0268C61.1302 96.0268 56.6914 93.9561 55.2177 91.0236L55.2931 91.1837C53.6422 87.4647 50.5659 85.1809 47.5773 83.9898C44.5887 82.7988 41.6183 82.4123 39.1361 81.9264C36.6539 81.4405 34.7758 80.8326 33.8227 80.0749C32.8696 79.3171 32.2353 78.4898 32.2353 75.5004C32.2353 72.0545 33.2118 69.8078 34.9438 67.4019C36.6758 64.996 39.2768 62.575 42.099 59.5956C47.7434 53.6368 53.9412 45.0476 53.9412 29.6704C53.9481 29.1862 53.8578 28.7054 53.6755 28.2567C53.4933 27.808 53.2229 27.4004 52.8802 27.0582C52.5376 26.716 52.1297 26.446 51.6809 26.2643C51.232 26.0826 50.7512 25.9929 50.267 26.0004ZM38.2129 98.4153C37.2715 98.4291 36.3725 98.8094 35.7069 99.4753L28.4716 106.712C28.1244 107.045 27.8472 107.444 27.6563 107.886C27.4653 108.328 27.3645 108.804 27.3596 109.285C27.3547 109.766 27.4459 110.244 27.6278 110.69C27.8097 111.135 28.0787 111.54 28.4191 111.881C28.7594 112.221 29.1642 112.49 29.6099 112.672C30.0555 112.854 30.5329 112.945 31.0142 112.94C31.4955 112.935 31.9709 112.834 32.4128 112.643C32.8546 112.452 33.2539 112.175 33.5872 111.828L34.6471 110.768V121.33C34.6403 121.81 34.7288 122.286 34.9076 122.731C35.0864 123.176 35.3518 123.581 35.6884 123.922C36.025 124.263 36.4261 124.535 36.8683 124.72C37.3106 124.905 37.7853 125 38.2647 125C38.7441 125 39.2188 124.905 39.6611 124.72C40.1033 124.535 40.5044 124.263 40.841 123.922C41.1777 123.581 41.443 123.176 41.6218 122.731C41.8006 122.286 41.8891 121.81 41.8824 121.33V110.768L42.9422 111.828C43.2756 112.175 43.6748 112.452 44.1167 112.643C44.5585 112.834 45.0339 112.935 45.5152 112.94C45.9965 112.945 46.4739 112.854 46.9196 112.672C47.3652 112.49 47.77 112.221 48.1103 111.881C48.4507 111.54 48.7197 111.135 48.9016 110.69C49.0835 110.244 49.1747 109.766 49.1698 109.285C49.1649 108.804 49.0641 108.328 48.8731 107.886C48.6822 107.444 48.405 107.045 48.0578 106.712L40.8225 99.4753C40.4805 99.1331 40.0733 98.863 39.6251 98.6809C39.1768 98.4989 38.6966 98.4086 38.2129 98.4153ZM93.6835 98.4153C92.7421 98.4291 91.8431 98.8094 91.1775 99.4753L83.9422 106.712C83.595 107.045 83.3178 107.444 83.1269 107.886C82.9359 108.328 82.8351 108.804 82.8302 109.285C82.8253 109.766 82.9165 110.244 83.0984 110.69C83.2803 111.135 83.5493 111.54 83.8897 111.881C84.23 112.221 84.6348 112.49 85.0804 112.672C85.526 112.854 86.0035 112.945 86.4848 112.94C86.9661 112.935 87.4415 112.834 87.8833 112.643C88.3252 112.452 88.7244 112.175 89.0578 111.828L90.1176 110.768V121.33C90.1109 121.81 90.1994 122.286 90.3782 122.731C90.557 123.176 90.8223 123.581 91.1589 123.922C91.4955 124.263 91.8966 124.535 92.3389 124.72C92.7812 124.905 93.2559 125 93.7353 125C94.2147 125 94.6894 124.905 95.1317 124.72C95.5739 124.535 95.975 124.263 96.3116 123.922C96.6482 123.581 96.9136 123.176 97.0924 122.731C97.2712 122.286 97.3597 121.81 97.3529 121.33V110.768L98.4128 111.828C98.7461 112.175 99.1454 112.452 99.5872 112.643C100.029 112.834 100.505 112.935 100.986 112.94C101.467 112.945 101.945 112.854 102.39 112.672C102.836 112.49 103.241 112.221 103.581 111.881C103.921 111.54 104.19 111.135 104.372 110.69C104.554 110.244 104.645 109.766 104.64 109.285C104.636 108.804 104.535 108.328 104.344 107.886C104.153 107.444 103.876 107.045 103.528 106.712L96.2931 99.4753C95.9511 99.1331 95.5439 98.863 95.0957 98.6809C94.6474 98.4989 94.1672 98.4086 93.6835 98.4153Z"
      fill="#DBA833"
    />
    <path
      fill-rule="evenodd"
      clip-rule="evenodd"
      d="M47.7059 29.6632V29.6704C47.7059 36.5742 46.5203 41.5872 44.6319 45.5976C42.7471 49.6003 40.1906 52.5398 37.5681 55.3083C36.8584 56.0576 36.1449 56.7808 35.4371 57.4984C33.4797 59.4827 31.5646 61.424 29.8861 63.7556C27.6466 66.8664 26 70.7514 26 75.5004C26 79.7374 27.5751 83.0732 29.9418 84.9549C32.3824 86.8953 35.1906 87.5067 37.9387 88.0447C38.3886 88.1328 38.8396 88.2181 39.2878 88.303C41.4926 88.7205 43.633 89.1258 45.272 89.779C46.2469 90.1675 47.1 90.6004 47.8293 91.2307C48.5672 91.8686 49.1258 92.6624 49.5889 93.7027L49.6171 93.7625L49.6485 93.8252C52.6135 99.7256 59.3874 102.263 66 102.263C72.6126 102.263 79.3865 99.7256 82.3515 93.8252L82.3829 93.7625L82.411 93.7027C82.8742 92.6625 83.4328 91.8686 84.1707 91.2307C84.9 90.6004 85.7531 90.1675 86.728 89.779C88.367 89.1258 90.5074 88.7205 92.7121 88.303C93.1604 88.2181 93.6114 88.1328 94.0613 88.0447C96.8094 87.5067 99.6176 86.8953 102.058 84.9549C104.425 83.0732 106 79.7374 106 75.5004C106 70.7514 104.353 66.8664 102.114 63.7556C100.435 61.424 98.5203 59.4827 96.5629 57.4984C95.8551 56.7808 95.1416 56.0576 94.4319 55.3083C91.8094 52.5398 89.2529 49.6003 87.3681 45.5976C85.4797 41.5872 84.2941 36.5742 84.2941 29.6704V29.6563C84.299 29.3093 84.235 28.9648 84.1057 28.6429C83.9763 28.3209 83.7842 28.0278 83.5407 27.7808C83.2971 27.5337 83.0069 27.3375 82.6868 27.2036C82.3668 27.0697 82.0234 27.0007 81.6765 27.0007C81.3296 27.0007 80.9861 27.0697 80.6661 27.2036C80.3461 27.3375 80.0558 27.5337 79.8123 27.7808C79.5687 28.0278 79.3766 28.3209 79.2473 28.6429C79.1179 28.9648 79.0538 29.3093 79.0587 29.6563L79.0589 29.6704C79.0589 44.7135 85.0961 53.0689 90.627 58.9079C91.3707 59.693 92.1107 60.4502 92.8298 61.1861C94.7736 63.1751 96.5653 65.0084 97.8678 66.8177C99.6964 69.3578 100.765 71.8045 100.765 75.5004C100.765 77.0486 100.603 78.1539 100.253 79.0049C99.8857 79.8985 99.3467 80.4227 98.7996 80.8576C98.1924 81.3404 97.3603 81.7264 96.4176 82.0488C95.4611 82.3759 94.3234 82.6596 93.056 82.9077C92.5603 83.0048 92.0546 83.0967 91.5403 83.1901C89.3995 83.5791 87.1113 83.9948 84.7929 84.9188C82.0216 86.0232 79.2193 88.1071 77.6847 91.4482L77.6871 91.4493L77.6118 91.6095L77.6063 91.607C76.7172 93.2766 75.0634 94.6128 73.0861 95.5317C71.0427 96.4814 68.5705 97.0268 66 97.0268C63.4295 97.0268 60.9573 96.4814 58.9139 95.5317C56.9366 94.6128 55.2828 93.2766 54.3937 91.607L54.3882 91.6095L54.3129 91.4493L54.3153 91.4482C52.7807 88.107 49.9784 86.0232 47.2071 84.9188C44.8887 83.9948 42.6005 83.5791 40.4597 83.1901C39.9454 83.0967 39.4397 83.0048 38.944 82.9077C37.6766 82.6596 36.5389 82.3759 35.5824 82.0488C34.6397 81.7264 33.8076 81.3404 33.2004 80.8576C32.6533 80.4227 32.1143 79.8985 31.7468 79.0049C31.3967 78.1539 31.2353 77.0486 31.2353 75.5004C31.2353 71.8045 32.3036 69.3578 34.1322 66.8177C35.4347 65.0084 37.2264 63.1751 39.1702 61.1861C39.8893 60.4502 40.6293 59.693 41.373 58.9079C46.9039 53.0689 52.9412 44.7135 52.9412 29.6704V29.6632L52.9413 29.6561C52.9463 29.3056 52.8809 28.9577 52.7491 28.633C52.6172 28.3083 52.4215 28.0134 52.1735 27.7657C51.9256 27.5181 51.6305 27.3227 51.3057 27.1912C50.9809 27.0598 50.633 26.9948 50.2826 27.0003L50.267 26.0004C50.7512 25.9929 51.232 26.0826 51.6809 26.2643C52.1297 26.446 52.5376 26.716 52.8802 27.0582C53.2228 27.4004 53.4933 27.808 53.6755 28.2567C53.8578 28.7054 53.9481 29.1862 53.9412 29.6704C53.9412 45.0476 47.7434 53.6368 42.099 59.5956C41.3222 60.4157 40.5621 61.1935 39.8322 61.9404C37.9107 63.9067 36.1991 65.6583 34.9438 67.4019C33.2118 69.8078 32.2353 72.0545 32.2353 75.5004C32.2353 78.4898 32.8696 79.3171 33.8227 80.0749C34.7758 80.8326 36.6539 81.4405 39.1361 81.9264C39.6077 82.0187 40.0969 82.1074 40.6005 82.1987C42.7477 82.5882 45.1565 83.0251 47.5773 83.9898C50.5193 85.1623 53.5462 87.3937 55.2147 91.0106C55.2165 91.0145 55.2183 91.0184 55.2201 91.0224C55.2201 91.0223 55.2201 91.0224 55.2201 91.0224C55.2289 91.0415 55.2377 91.0607 55.2465 91.08C55.2639 91.1136 55.2817 91.1471 55.2999 91.1806C55.2998 91.1805 55.2999 91.1806 55.2999 91.1806C55.3016 91.1838 55.3034 91.1871 55.3052 91.1903C56.8608 94.0343 61.223 96.0268 66 96.0268C70.7769 96.0268 75.1392 94.0343 76.6948 91.1903C76.6966 91.1871 76.6983 91.1839 76.7 91.1807C76.7 91.1807 76.7001 91.1806 76.7 91.1807C76.7182 91.1473 76.7361 91.1136 76.7535 91.08C76.7622 91.0607 76.771 91.0416 76.7798 91.0224C76.7798 91.0224 76.7798 91.0224 76.7798 91.0224C76.7816 91.0185 76.7835 91.0145 76.7853 91.0106C78.4538 87.3937 81.4807 85.1623 84.4227 83.9898C86.8435 83.0251 89.2523 82.5882 91.3995 82.1987C91.9031 82.1074 92.3923 82.0187 92.8639 81.9264C95.3461 81.4405 97.2242 80.8326 98.1773 80.0749C99.1304 79.3171 99.7647 78.4898 99.7647 75.5004C99.7647 72.0545 98.7882 69.8078 97.0562 67.4019C95.8009 65.6583 94.0892 63.9067 92.1677 61.9403C91.4379 61.1935 90.6778 60.4157 89.901 59.5956C84.2566 53.6368 78.0588 45.0476 78.0588 29.6704C78.052 29.191 78.1406 28.715 78.3194 28.27C78.4981 27.8251 78.7635 27.4202 79.1001 27.0787C79.4367 26.7373 79.8378 26.4662 80.2801 26.2811C80.7224 26.096 81.197 26.0007 81.6765 26.0007C82.1559 26.0007 82.6305 26.096 83.0728 26.2811C83.5151 26.4662 83.9162 26.7373 84.2528 27.0787C84.5894 27.4202 84.8548 27.8251 85.0336 28.27C85.2123 28.715 85.3009 29.191 85.2941 29.6704C85.2941 43.2385 89.9493 49.1219 95.1579 54.6206C95.8377 55.3383 96.5327 56.0428 97.2301 56.7497C99.2041 58.7506 101.198 60.7716 102.925 63.1713C105.263 66.4188 107 70.5039 107 75.5004C107 79.9764 105.333 83.6288 102.68 85.7377C100.028 87.8466 96.9927 88.4898 94.2534 89.026C93.7841 89.1179 93.3201 89.2059 92.8641 89.2924C90.6585 89.7108 88.6388 90.094 87.0982 90.7079C85.2392 91.4488 84.1537 92.2417 83.3204 94.1188L83.2827 94.1989L83.2451 94.2743C80.0399 100.652 72.8032 103.263 66 103.263C59.1968 103.263 51.9601 100.652 48.7549 94.2743L48.7173 94.1989L48.6796 94.1188C47.8463 92.2417 46.7608 91.4488 44.9018 90.7079C43.3612 90.094 41.3415 89.7108 39.1359 89.2924C38.6799 89.2059 38.2159 89.1179 37.7466 89.026C35.0073 88.4898 31.972 87.8466 29.3195 85.7377C26.667 83.6288 25 79.9764 25 75.5004C25 70.5039 26.7367 66.4188 29.0746 63.1713C30.8021 60.7716 32.7959 58.7506 34.7699 56.7497C35.4673 56.0427 36.1623 55.3383 36.8421 54.6206C42.0507 49.1219 46.7059 43.2385 46.7059 29.6704C46.6921 28.7116 47.0595 27.7866 47.7272 27.0985C48.3949 26.4103 49.3084 26.0154 50.267 26.0004L50.2826 27.0003C49.589 27.0112 48.928 27.2969 48.4448 27.7948C47.9617 28.2928 47.6958 28.9622 47.7058 29.6561L47.7059 29.6632ZM40.8225 99.4753C40.4805 99.1331 40.0733 98.863 39.6251 98.6809C39.1768 98.4989 38.6966 98.4086 38.2129 98.4153C37.2715 98.4291 36.3725 98.8094 35.7069 99.4753L28.4716 106.712C28.1244 107.045 27.8472 107.444 27.6563 107.886C27.4653 108.328 27.3645 108.804 27.3596 109.285C27.3547 109.766 27.4459 110.244 27.6278 110.69C27.8097 111.135 28.0787 111.54 28.4191 111.881C28.7594 112.221 29.1642 112.49 29.6099 112.672C30.0555 112.854 30.5329 112.945 31.0142 112.94C31.4955 112.935 31.9709 112.834 32.4128 112.643C32.8546 112.452 33.2538 112.175 33.5872 111.828L34.6471 110.768V121.33C34.6403 121.81 34.7288 122.286 34.9076 122.731C35.0864 123.176 35.3518 123.581 35.6884 123.922C36.025 124.263 36.4261 124.535 36.8683 124.72C37.3106 124.905 37.7853 125 38.2647 125C38.7441 125 39.2188 124.905 39.6611 124.72C40.1033 124.535 40.5044 124.263 40.841 123.922C41.1777 123.581 41.443 123.176 41.6218 122.731C41.8006 122.286 41.8891 121.81 41.8824 121.33V110.768L42.9422 111.828C43.2756 112.175 43.6748 112.452 44.1167 112.643C44.5585 112.834 45.0339 112.935 45.5152 112.94C45.9965 112.945 46.4739 112.854 46.9196 112.672C47.3652 112.49 47.77 112.221 48.1103 111.881C48.4507 111.54 48.7197 111.135 48.9016 110.69C49.0835 110.244 49.1747 109.766 49.1698 109.285C49.1649 108.804 49.0641 108.328 48.8731 107.886C48.6822 107.444 48.405 107.045 48.0578 106.712L40.8225 99.4753ZM38.2275 99.4152C38.5773 99.4104 38.9246 99.4758 39.2487 99.6074C39.5731 99.7392 39.8677 99.9346 40.1152 100.182L47.3578 107.426L47.3652 107.433C47.6164 107.674 47.817 107.963 47.9552 108.283C48.0933 108.603 48.1663 108.947 48.1699 109.295C48.1734 109.644 48.1074 109.989 47.9758 110.312C47.8441 110.634 47.6495 110.927 47.4032 111.173C47.1569 111.42 46.864 111.614 46.5415 111.746C46.2191 111.878 45.8736 111.944 45.5254 111.94C45.1771 111.937 44.8331 111.864 44.5134 111.725C44.1937 111.587 43.9048 111.387 43.6636 111.135L43.6566 111.128L40.8824 108.353L40.8823 121.33L40.8825 121.344C40.8874 121.691 40.8233 122.036 40.6939 122.358C40.5645 122.68 40.3725 122.973 40.1289 123.22C39.8853 123.467 39.5951 123.663 39.2751 123.797C38.955 123.931 38.6116 124 38.2647 124C37.9178 124 37.5744 123.931 37.2543 123.797C36.9343 123.663 36.6441 123.467 36.4005 123.22C36.1569 122.973 35.9649 122.68 35.8355 122.358C35.7061 122.036 35.6421 121.691 35.647 121.344L35.6471 108.353L32.8729 111.128L32.8658 111.135C32.6246 111.387 32.3357 111.587 32.016 111.725C31.6963 111.864 31.3522 111.937 31.004 111.94C30.6558 111.944 30.3103 111.878 29.9879 111.746C29.6654 111.614 29.3725 111.42 29.1262 111.173C28.88 110.927 28.6853 110.634 28.5536 110.312C28.422 109.989 28.356 109.644 28.3595 109.295C28.3631 108.947 28.4361 108.603 28.5743 108.283C28.7124 107.963 28.913 107.674 29.1643 107.433L29.1716 107.426L36.4141 100.182C36.8956 99.7006 37.5466 99.4254 38.2275 99.4152ZM91.8847 100.182L84.6422 107.426L84.6348 107.433C84.3836 107.674 84.183 107.963 84.0448 108.283C83.9067 108.603 83.8337 108.947 83.8301 109.295C83.8266 109.644 83.8926 109.989 84.0242 110.312C84.1559 110.634 84.3505 110.927 84.5968 111.173C84.8431 111.42 85.136 111.614 85.4585 111.746C85.7809 111.878 86.1264 111.944 86.4746 111.94C86.8228 111.937 87.1669 111.864 87.4866 111.725C87.8063 111.587 88.0952 111.387 88.3364 111.135L88.3434 111.128L91.1176 108.353V121.344C91.1127 121.691 91.1767 122.036 91.3061 122.358C91.4355 122.68 91.6275 122.973 91.8711 123.22C92.1147 123.467 92.4049 123.663 92.7249 123.797C93.045 123.931 93.3884 124 93.7353 124C94.0822 124 94.4256 123.931 94.7457 123.797C95.0657 123.663 95.3559 123.467 95.5995 123.22C95.8431 122.973 96.0351 122.68 96.1645 122.358C96.2939 122.036 96.3579 121.691 96.353 121.344L96.3528 121.33L96.3529 108.353L99.1271 111.128L99.1342 111.135C99.3754 111.387 99.6643 111.587 99.984 111.725C100.304 111.864 100.648 111.937 100.996 111.94C101.344 111.944 101.69 111.878 102.012 111.746C102.335 111.614 102.627 111.42 102.874 111.173C103.12 110.927 103.315 110.634 103.446 110.312C103.578 109.989 103.644 109.644 103.64 109.295C103.637 108.947 103.564 108.603 103.426 108.283C103.288 107.963 103.087 107.674 102.836 107.433L102.828 107.426L95.5859 100.182C95.3384 99.9348 95.0436 99.7392 94.7193 99.6074C94.3952 99.4758 94.0479 99.4104 93.6981 99.4152M96.2931 99.4753C95.9511 99.1331 95.5439 98.863 95.0957 98.6809C94.6474 98.4989 94.1672 98.4086 93.6835 98.4153C92.7421 98.4291 91.8431 98.8094 91.1775 99.4753L83.9422 106.712C83.595 107.045 83.3178 107.444 83.1269 107.886C82.9359 108.328 82.8351 108.804 82.8302 109.285C82.8253 109.766 82.9165 110.244 83.0984 110.69C83.2803 111.135 83.5493 111.54 83.8897 111.881C84.23 112.221 84.6348 112.49 85.0804 112.672C85.526 112.854 86.0035 112.945 86.4848 112.94C86.9661 112.935 87.4415 112.834 87.8833 112.643C88.3252 112.452 88.7244 112.175 89.0578 111.828L90.1176 110.768V121.33C90.1109 121.81 90.1994 122.286 90.3782 122.731C90.557 123.176 90.8223 123.581 91.1589 123.922C91.4955 124.263 91.8966 124.535 92.3389 124.72C92.7812 124.905 93.2559 125 93.7353 125C94.2147 125 94.6894 124.905 95.1317 124.72C95.5739 124.535 95.975 124.263 96.3116 123.922C96.6482 123.581 96.9136 123.176 97.0924 122.731C97.2711 122.286 97.3597 121.81 97.3529 121.33V110.768L98.4128 111.828C98.7461 112.175 99.1454 112.452 99.5872 112.643C100.029 112.834 100.505 112.935 100.986 112.94C101.467 112.945 101.945 112.854 102.39 112.672C102.836 112.49 103.241 112.221 103.581 111.881C103.921 111.54 104.19 111.135 104.372 110.69C104.554 110.244 104.645 109.766 104.64 109.285C104.636 108.804 104.535 108.328 104.344 107.886C104.153 107.444 103.876 107.045 103.528 106.712L96.2931 99.4753ZM91.8847 100.182C92.3662 99.7006 93.0172 99.4254 93.6981 99.4152L91.8847 100.182Z"
      fill="white"
    />
    <path
      fill-rule="evenodd"
      clip-rule="evenodd"
      d="M134.61 26.8114C135.265 27.7005 135.075 28.9526 134.186 29.608L9.58622 121.445C8.69707 122.101 7.44501 121.911 6.78965 121.022C6.1343 120.133 6.32382 118.881 7.21297 118.226L131.813 26.3881C132.702 25.7327 133.954 25.9222 134.61 26.8114Z"
      fill="white"
    />
    <path
      fill-rule="evenodd"
      clip-rule="evenodd"
      d="M1.04135 21.1524C1.89932 20.0706 3.4718 19.8892 4.55359 20.7472L120.554 112.747C121.635 113.605 121.817 115.178 120.959 116.259C120.101 117.341 118.528 117.523 117.447 116.665L1.44661 24.6647C0.364828 23.8067 0.183388 22.2342 1.04135 21.1524Z"
      fill="#DBA833"
    />
    <path
      fill-rule="evenodd"
      clip-rule="evenodd"
      d="M1.4333 18.4628C2.11983 17.5975 3.37783 17.4526 4.24314 18.1391L125.243 114.139C126.108 114.826 126.253 116.084 125.567 116.949C124.88 117.814 123.622 117.959 122.757 117.273L1.75702 21.2727C0.891708 20.5861 0.746776 19.3281 1.4333 18.4628Z"
      fill="white"
    />
    <path
      fill-rule="evenodd"
      clip-rule="evenodd"
      d="M130.718 26.1725C131.21 26.8388 131.069 27.778 130.403 28.2702L11.5639 116.044C10.8975 116.537 9.95832 116.395 9.46614 115.729C8.97396 115.063 9.11517 114.123 9.78154 113.631L128.62 25.8571C129.287 25.3649 130.226 25.5061 130.718 26.1725Z"
      fill="#DBA833"
    />
  </symbol>

  <symbol
    width="96"
    height="94"
    viewBox="0 0 96 94"
    fill="none"
    id="heating-right"
  >
    <path
      fill-rule="evenodd"
      clip-rule="evenodd"
      d="M68.5474 26.9797L73.0414 7.38024L73.0409 7.38013L68.5474 26.9797ZM95.9997 30.1711L93.6447 40.4119L93.6454 40.4121L95.9997 30.1711ZM46.4997 12.2951L58.5164 0.248047L61.6898 3.42942L48.7404 16.4115V42.9404L71.1939 28.8613L75.2935 10.9796L79.6609 11.9887L75.843 28.5917L92.4046 32.4193L91.3946 36.813L73.5676 32.6937L50.7377 47L73.5676 61.3064L91.3946 57.1871L92.4046 61.5808L75.843 65.4084L79.6609 82.0114L75.2935 83.0205L71.1937 65.1381L48.7404 51.0727V77.5886L61.6898 90.5707L58.5164 93.752L46.4997 81.705L34.4829 93.752L31.3095 90.5707L44.259 77.5886V51.0727L21.8056 65.1381L17.7058 83.0205L13.3385 82.0114L17.1563 65.4084L0.594727 61.5808L1.60475 57.1871L19.4317 61.3064L42.2616 47L19.4317 32.6937L1.60475 36.813L0.594727 32.4193L17.1563 28.5917L13.3385 11.9887L17.7058 10.9796L21.8054 28.8613L44.259 42.9404V16.4115L31.3095 3.42942L34.4829 0.248047L46.4997 12.2951Z"
      fill="#DBA833"
    />
  </symbol>

  <symbol width="104" height="103" viewBox="0 0 104 103" fill="none" id="dom">
    <path
      fill-rule="evenodd"
      clip-rule="evenodd"
      d="M26.208 34.4982C25.0982 32.8343 25.0983 32.8342 25.0982 32.8343L28.208 30.7601V43.2187C28.2082 43.5933 28.3088 43.9608 28.4992 44.2831C28.4993 44.283 28.5007 44.2847 28.5035 44.2882C28.5154 44.3031 28.5537 44.3509 28.6325 44.4321C28.7412 44.544 28.8773 44.6687 29.0224 44.7927C29.1323 44.8867 29.2378 44.9721 29.3261 45.0416C29.433 45.0765 29.5626 45.1169 29.7017 45.1563C29.8854 45.2082 30.0646 45.2523 30.218 45.2806C30.3292 45.3012 30.3902 45.3065 30.4093 45.3082C30.4137 45.3086 30.4159 45.3088 30.4159 45.3089C30.7899 45.2886 31.1516 45.1683 31.4634 44.9605L52.7705 30.7558L52.7706 43.2015C52.7708 43.2015 52.7713 43.2041 52.7723 43.2093C52.777 43.2338 52.793 43.3175 52.8463 43.4702C52.9189 43.6783 53.0266 43.9189 53.1519 44.1647C53.2458 44.3488 53.341 44.5192 53.4232 44.6598C53.5638 44.742 53.7342 44.8372 53.9183 44.9311C54.1641 45.0564 54.4047 45.1641 54.6127 45.2367C54.7654 45.2899 54.8489 45.306 54.8734 45.3107C54.8787 45.3117 54.8812 45.3122 54.8812 45.3125H73.9682C74.5236 45.3124 75.0561 45.0918 75.4488 44.6991C75.8414 44.3065 76.0621 43.7738 76.0622 43.2185V10.4687C76.0622 9.58771 76.3792 8.72162 77.0295 8.0714C77.6797 7.4212 78.5458 7.10413 79.4268 7.10413H95.8018C96.6828 7.10413 97.5489 7.4212 98.1991 8.0714C98.8493 8.72162 99.1663 9.58771 99.1663 10.4687V95.0729C99.1663 95.9539 98.8493 96.82 98.1991 97.4702C97.5489 98.1204 96.6828 98.4375 95.8018 98.4375H11.1976C10.3166 98.4375 9.4505 98.1204 8.80029 97.4702C8.15008 96.82 7.83301 95.9535 7.83301 95.0725C7.83301 95.0728 7.83301 95.0729 9.83301 95.0729L7.83301 95.0725L7.83304 46.129C7.83581 45.6149 7.99603 45.1927 8.10503 44.9504C8.22532 44.683 8.36772 44.4527 8.48161 44.2845C8.59929 44.1107 8.71291 43.9645 8.79572 43.8629C8.838 43.811 8.87448 43.768 8.90237 43.7358L8.92466 43.7102L8.93798 43.6951L8.95068 43.6809L8.95567 43.6754L8.95879 43.6719C8.95902 43.6717 8.95971 43.6709 10.4407 45.0151L8.95971 43.6709L9.12549 43.4883L25.0982 32.8343L26.208 34.4982ZM56.958 41.125H71.8747V10.4687C71.8747 6.3463 75.3044 2.91663 79.4268 2.91663H95.8018C99.9242 2.91663 103.354 6.3463 103.354 10.4687V95.0729C103.354 99.1953 99.9242 102.625 95.8018 102.625H11.1976C7.07518 102.625 3.64551 99.1953 3.64551 95.0729V46.1313C3.64661 45.7386 3.79004 45.1428 4.13789 44.3641C4.47425 43.6111 4.93975 42.8228 5.43335 42.0862C5.92316 41.3553 6.41669 40.7106 6.78923 40.2475C6.97164 40.0207 7.12296 39.8401 7.2278 39.7171L29.1401 25.1019C29.4554 24.8918 29.8219 24.7711 30.2004 24.7529C30.579 24.7346 30.9554 24.8194 31.2895 24.9982C31.6236 25.177 31.903 25.4432 32.0977 25.7682C32.2924 26.0932 32.3953 26.4653 32.3955 26.8441V39.3066L53.7029 25.1017C54.0182 24.8917 54.3846 24.7711 54.7629 24.7529C55.1415 24.7346 55.5179 24.8194 55.852 24.9982C56.1861 25.177 56.4655 25.4432 56.6602 25.7682C56.8549 26.0932 56.9579 26.4653 56.958 26.8441V41.125ZM22.7497 58.2291C22.7497 57.8217 23.0715 57.5 23.4788 57.5H28.9372C29.3446 57.5 29.6663 57.8217 29.6663 58.2291V63.6875C29.6663 64.0948 29.3446 64.4166 28.9372 64.4166H23.4788C23.0715 64.4166 22.7497 64.0949 22.7497 63.6875V58.2291ZM50.0413 58.2291C50.0413 57.8217 50.3631 57.5 50.7705 57.5H56.2288C56.6362 57.5 56.958 57.8217 56.958 58.2291V63.6875C56.958 64.0948 56.6362 64.4166 56.2288 64.4166H50.7705C50.3631 64.4166 50.0413 64.0948 50.0413 63.6875V58.2291ZM77.333 63.6875V58.2291C77.333 57.8217 77.6548 57.5 78.0622 57.5H83.5205C83.9279 57.5 84.2497 57.8217 84.2497 58.2291V63.6875C84.2497 64.0949 83.9279 64.4166 83.5205 64.4166H78.0622C77.6548 64.4166 77.333 64.0949 77.333 63.6875ZM22.7497 80.0625C22.7497 79.6551 23.0715 79.3333 23.4788 79.3333H28.9372C29.3446 79.3333 29.6663 79.6551 29.6663 80.0625V85.5208C29.6663 85.9282 29.3446 86.25 28.9372 86.25H23.4788C23.0715 86.25 22.7497 85.9282 22.7497 85.5208V80.0625ZM50.0413 80.0625C50.0413 79.6551 50.3631 79.3333 50.7705 79.3333H56.2288C56.6362 79.3333 56.958 79.6551 56.958 80.0625V85.5208C56.958 85.9282 56.6362 86.25 56.2288 86.25H50.7705C50.3631 86.25 50.0413 85.9282 50.0413 85.5208V80.0625ZM77.333 85.5208V80.0625C77.333 79.6551 77.6548 79.3333 78.0622 79.3333H83.5205C83.9279 79.3333 84.2497 79.6551 84.2497 80.0625V85.5208C84.2497 85.9282 83.9279 86.25 83.5205 86.25H78.0622C77.6548 86.25 77.333 85.9282 77.333 85.5208Z"
      fill="#DBA833"
    />
    <path
      d="M5.126 17C4.97933 17 4.85467 16.9487 4.752 16.846C4.64933 16.7433 4.598 16.6187 4.598 16.472V4.30601H0.528C0.381333 4.30601 0.256667 4.25467 0.154 4.152C0.0513333 4.04934 0 3.92467 0 3.77801V2.15001C0 1.98867 0.0513333 1.85667 0.154 1.75401C0.256667 1.65134 0.381333 1.6 0.528 1.6H11.748C11.9093 1.6 12.0413 1.65134 12.144 1.75401C12.2467 1.85667 12.298 1.98867 12.298 2.15001V3.77801C12.298 3.92467 12.2467 4.04934 12.144 4.152C12.0413 4.25467 11.9093 4.30601 11.748 4.30601H7.7V16.472C7.7 16.6187 7.64867 16.7433 7.546 16.846C7.44333 16.9487 7.31133 17 7.15 17H5.126Z"
      fill="#DBA833"
    />
    <path
      d="M20.169 17.22C18.8637 17.22 17.7417 17.0073 16.803 16.582C15.8643 16.142 15.131 15.4747 14.603 14.58C14.075 13.6707 13.789 12.5413 13.745 11.192C13.7303 10.5613 13.723 9.93801 13.723 9.32201C13.723 8.70601 13.7303 8.07534 13.745 7.43001C13.789 6.09534 14.0823 4.98067 14.625 4.08601C15.1677 3.19134 15.9083 2.51667 16.847 2.06201C17.8003 1.60734 18.9077 1.38 20.169 1.38C21.4303 1.38 22.5377 1.60734 23.491 2.06201C24.4443 2.51667 25.1923 3.19134 25.735 4.08601C26.2777 4.98067 26.571 6.09534 26.615 7.43001C26.6444 8.07534 26.659 8.70601 26.659 9.32201C26.659 9.93801 26.6444 10.5613 26.615 11.192C26.571 12.5413 26.285 13.6707 25.757 14.58C25.229 15.4747 24.4883 16.142 23.535 16.582C22.5963 17.0073 21.4743 17.22 20.169 17.22ZM20.169 14.69C21.1223 14.69 21.8997 14.4113 22.501 13.854C23.1023 13.282 23.425 12.358 23.469 11.082C23.4983 10.4367 23.513 9.84267 23.513 9.3C23.513 8.74267 23.4983 8.14867 23.469 7.51801C23.4397 6.66734 23.2783 5.978 22.985 5.45C22.7063 4.90734 22.325 4.51867 21.841 4.28401C21.357 4.03467 20.7997 3.91001 20.169 3.91001C19.553 3.91001 19.003 4.03467 18.519 4.28401C18.035 4.51867 17.6463 4.90734 17.353 5.45C17.0743 5.978 16.9203 6.66734 16.891 7.51801C16.8763 8.14867 16.869 8.74267 16.869 9.3C16.869 9.84267 16.8763 10.4367 16.891 11.082C16.935 12.358 17.2577 13.282 17.859 13.854C18.4603 14.4113 19.2303 14.69 20.169 14.69Z"
      fill="#DBA833"
    />
    <path
      d="M30.0759 17C29.9292 17 29.8046 16.9487 29.7019 16.846C29.5992 16.7433 29.5479 16.6187 29.5479 16.472V2.15001C29.5479 1.98867 29.5992 1.85667 29.7019 1.75401C29.8046 1.65134 29.9292 1.6 30.0759 1.6H35.9719C37.1159 1.6 38.1132 1.78334 38.9639 2.15001C39.8146 2.50201 40.4746 3.04467 40.9439 3.77801C41.4132 4.49667 41.6479 5.39867 41.6479 6.484C41.6479 7.584 41.4132 8.49334 40.9439 9.21201C40.4746 9.91601 39.8146 10.444 38.9639 10.796C38.1132 11.148 37.1159 11.324 35.9719 11.324H32.6939V16.472C32.6939 16.6187 32.6426 16.7433 32.5399 16.846C32.4519 16.9487 32.3272 17 32.1659 17H30.0759ZM32.6499 8.88201H35.8619C36.7126 8.88201 37.3652 8.684 37.8199 8.288C38.2746 7.87734 38.5019 7.276 38.5019 6.484C38.5019 5.75067 38.2892 5.16401 37.8639 4.724C37.4386 4.26934 36.7712 4.042 35.8619 4.042H32.6499V8.88201Z"
      fill="#DBA833"
    />
    <path
      fill-rule="evenodd"
      clip-rule="evenodd"
      d="M44.8075 10.4853L54.3534 0.939339C54.9392 0.353552 55.889 0.353552 56.4748 0.939339L66.0207 10.4853C66.6065 11.0711 66.6065 12.0208 66.0207 12.6066C65.4349 13.1924 64.4852 13.1924 63.8994 12.6066L56.9141 5.62132L56.9141 17C56.9141 17.8284 56.2425 18.5 55.4141 18.5C54.5857 18.5 53.9141 17.8284 53.9141 17L53.9141 5.62132L46.9288 12.6066C46.343 13.1924 45.3933 13.1924 44.8075 12.6066C44.2217 12.0208 44.2217 11.0711 44.8075 10.4853Z"
      fill="#DBA833"
    />
  </symbol>

  <symbol width="102" height="102" viewBox="0 0 102 102" fill="none" id="sale">
    <path
      d="M62.4078 0.0141829C61.5262 -0.0510285 60.6213 0.107522 59.7834 0.512923L50.9967 4.71969L42.2056 0.508586H42.2013C39.97 -0.563008 37.2705 0.111576 35.7847 2.09154V2.09588L29.9413 9.94128L20.2065 10.3273H20.2022C17.7367 10.4282 15.6571 12.2882 15.2637 14.7422L13.708 24.4177L5.27038 29.3184C3.13078 30.5579 2.1401 33.1731 2.92179 35.5331L6.0202 44.8357L0.805911 53.1148C-0.51555 55.2127 -0.185751 57.9938 1.60314 59.7155L8.63165 66.4984L7.83874 76.2694C7.63808 78.7488 9.22054 81.0481 11.5835 81.7425H11.5879L20.9477 84.4574L24.7572 93.4824V93.4867C25.726 95.7643 28.1852 97.1002 30.6265 96.5702L40.1587 94.6056L47.6914 100.812V100.807C48.6474 101.597 49.8311 102 51.001 102C52.1754 102 53.3528 101.595 54.3062 100.807L61.8389 94.6013L71.3712 96.5659C73.8077 97.0919 76.2728 95.7653 77.2405 93.4781L81.0499 84.4574L90.4055 81.7425H90.4098C92.7793 81.0521 94.359 78.7451 94.1589 76.2694L93.366 66.4941L100.395 59.7112C102.181 57.9892 102.518 55.2097 101.196 53.1105L95.9818 44.8314L99.0802 35.5288V35.5245C99.8526 33.1699 98.873 30.5547 96.7316 29.3141L88.2896 24.4134L86.7382 14.7335V14.7292C86.3346 12.2854 84.2568 10.4282 81.7911 10.3273L72.0564 9.94128L66.2129 2.10022C65.4702 1.10357 64.4197 0.435718 63.2783 0.152963C62.9929 0.0822738 62.7016 0.03592 62.4078 0.0141829ZM40.0467 4.29901C40.1527 4.30999 40.2596 4.34115 40.3612 4.39008L50.9967 9.48157L61.6321 4.39008H61.6364C62.0363 4.1966 62.5161 4.31137 62.7913 4.68065L69.8543 14.1611L81.6188 14.6251C82.0832 14.6441 82.4419 14.9667 82.5194 15.4361L84.394 27.1196L94.5985 33.0438C94.993 33.2724 95.1679 33.7296 95.0251 34.1714L91.2846 45.4039L97.5848 55.4134C97.8283 55.7999 97.7719 56.2849 97.4383 56.606L88.9403 64.807L89.897 76.6163C89.9352 77.0894 89.6706 77.4783 89.2204 77.6094L77.9084 80.8925L73.3104 91.7953C73.1263 92.2304 72.6905 92.4548 72.2675 92.3635L72.2589 92.3591L60.7056 89.9782L51.5957 97.481C51.415 97.6303 51.2166 97.6978 51.001 97.6978C50.7808 97.6978 50.5801 97.6325 50.402 97.4853L41.2921 89.9825L29.7387 92.3635H29.7258C29.3032 92.4552 28.8746 92.2313 28.6873 91.791V91.7997L24.0892 80.8925L12.7815 77.6138C12.3336 77.4823 12.063 77.0856 12.1007 76.6206L13.0573 64.807L4.55934 56.6103V56.606C4.22569 56.285 4.16775 55.8067 4.41282 55.4177L10.7174 45.4082L6.97256 34.1714C6.82757 33.7336 7.00145 33.2785 7.39919 33.0481H7.40349L17.6037 27.124L19.4825 15.4274C19.5567 14.9649 19.9119 14.6457 20.3746 14.6251L32.139 14.1611L39.1977 4.68499C39.4099 4.40226 39.7285 4.26608 40.0467 4.29901ZM23.3739 41.0063C17.196 41.0063 16.3109 45.4464 16.3109 46.7786C16.3109 54.1062 28.0064 50.7755 28.0064 55.6606C28.0064 55.8826 27.7849 58.5489 23.8134 58.5489C18.9594 58.5489 18.9611 54.9953 18.9611 54.3291V54.5503H15.6516C15.6516 56.1046 16.3117 61.4329 23.8134 61.4329C24.696 61.4329 31.5357 60.9914 31.5357 55.2182C31.5357 47.8906 19.8445 50.9993 19.8445 46.3363C19.8445 45.8922 20.0643 43.8946 23.3739 43.8946C26.9041 43.8946 27.5668 45.8931 27.5668 47.2253H30.8764C30.8764 45.8931 30.2136 41.0063 23.3739 41.0063ZM41.0249 41.2275L33.5223 60.7694H37.0517L38.8185 55.6606H46.5408L48.5274 60.7694H52.0568L44.5542 41.2275H41.0249ZM55.1466 41.2275V60.5482H68.3848V57.6599H58.4561V41.2275H55.1466ZM72.1339 41.2275V60.7694H86.2556V57.881H75.4435V52.1087H85.1524V49.2203H75.4435V44.1158H86.0358V41.2275H72.1339ZM42.7874 44.5582L45.6574 52.9977H39.7019L42.7874 44.5582Z"
      fill="#DBA833"
    />
  </symbol>

  <symbol
    width="116"
    height="93"
    viewBox="0 0 116 93"
    fill="none"
    id="dvigatel"
  >
    <path
      fill-rule="evenodd"
      clip-rule="evenodd"
      d="M60.5 79.2727H17.6429V66.0455H4.07143V70.4545H0.5V40.1818H4.07143V44.5909H17.6429V31.3636H26.2143V4.31818H21.9286V0.5H51.2143V4.31818H46.9286V31.3636H60.5V28.8636C60.5 22.9242 65.2544 18.1364 70.8571 18.1364H105.143C110.746 18.1364 115.5 22.9242 115.5 28.8636V81.7727C115.5 87.7122 110.746 92.5 105.143 92.5H70.8571C65.2544 92.5 60.5 87.7122 60.5 81.7727V79.2727ZM43.3571 4.31818H29.7857V31.3636H43.3571V4.31818ZM98.3571 74.8636H64.0714V81.7727C64.0714 85.5774 66.9885 88.6818 70.8571 88.6818H105.143C109.012 88.6818 111.929 85.5774 111.929 81.7727V28.8636C111.929 25.059 109.012 21.9545 105.143 21.9545H70.8571C66.9885 21.9545 64.0714 25.059 64.0714 28.8636V35.7727H98.3571V39.5909H64.0714V53.4091H98.3571V57.2273H64.0714V71.0455H98.3571V74.8636ZM60.5 35.1818H21.2143V75.4545H60.5V35.1818ZM17.6429 48.4091H4.07143V62.2273H17.6429V48.4091Z"
      fill="#DBA833"
    />
    <path
      d="M69.0845 14C68.9512 14 68.8378 13.9533 68.7445 13.86C68.6512 13.7667 68.6045 13.6533 68.6045 13.52V0.500001C68.6045 0.353334 68.6512 0.233333 68.7445 0.14C68.8378 0.0466666 68.9512 0 69.0845 0H70.6245C70.8112 0 70.9445 0.0466666 71.0245 0.14C71.1178 0.22 71.1778 0.28 71.2045 0.320001L76.9645 9.28V0.500001C76.9645 0.353334 77.0045 0.233333 77.0845 0.14C77.1778 0.0466666 77.2978 0 77.4445 0H79.1245C79.2712 0 79.3912 0.0466666 79.4845 0.14C79.5778 0.233333 79.6245 0.353334 79.6245 0.500001V13.5C79.6245 13.6467 79.5778 13.7667 79.4845 13.86C79.3912 13.9533 79.2778 14 79.1445 14H77.5845C77.3978 14 77.2645 13.9533 77.1845 13.86C77.1045 13.7667 77.0445 13.7067 77.0045 13.68L71.2645 4.92V13.52C71.2645 13.6533 71.2178 13.7667 71.1245 13.86C71.0312 13.9533 70.9112 14 70.7645 14H69.0845Z"
      fill="#DBA833"
    />
    <path
      d="M83.2251 14C83.0918 14 82.9784 13.9533 82.8851 13.86C82.7918 13.7667 82.7451 13.6533 82.7451 13.52V0.500001C82.7451 0.353334 82.7918 0.233333 82.8851 0.14C82.9784 0.0466666 83.0918 0 83.2251 0H92.0251C92.1718 0 92.2918 0.0466666 92.3851 0.14C92.4785 0.233333 92.5251 0.353334 92.5251 0.500001V1.82C92.5251 1.95333 92.4785 2.06667 92.3851 2.16C92.2918 2.25333 92.1718 2.3 92.0251 2.3H85.4451V5.84H91.5851C91.7318 5.84 91.8518 5.88667 91.9451 5.98C92.0385 6.06 92.0851 6.17333 92.0851 6.32V7.56C92.0851 7.70667 92.0385 7.82667 91.9451 7.92C91.8518 8 91.7318 8.04 91.5851 8.04H85.4451V11.7H92.1851C92.3318 11.7 92.4518 11.7467 92.5451 11.84C92.6385 11.9333 92.6851 12.0533 92.6851 12.2V13.52C92.6851 13.6533 92.6385 13.7667 92.5451 13.86C92.4518 13.9533 92.3318 14 92.1851 14H83.2251Z"
      fill="#DBA833"
    />
    <path
      d="M97.4865 14C97.2865 14 97.1265 13.9467 97.0065 13.84C96.8999 13.72 96.8265 13.5733 96.7865 13.4L94.4065 0.580001C94.4065 0.540001 94.3999 0.506667 94.3865 0.48C94.3865 0.453333 94.3865 0.433334 94.3865 0.420001C94.3865 0.300001 94.4265 0.200001 94.5065 0.120001C94.5999 0.0400003 94.6999 0 94.8065 0H96.5665C96.8999 0 97.0865 0.133333 97.1265 0.400001L98.7865 9.46L100.587 3.6C100.627 3.49333 100.693 3.38667 100.787 3.28C100.893 3.16 101.047 3.1 101.247 3.1H102.327C102.54 3.1 102.693 3.16 102.787 3.28C102.88 3.38667 102.94 3.49333 102.967 3.6L104.787 9.44L106.447 0.400001C106.487 0.133333 106.673 0 107.007 0H108.767C108.873 0 108.967 0.0400003 109.047 0.120001C109.127 0.200001 109.167 0.300001 109.167 0.420001C109.167 0.433334 109.167 0.453333 109.167 0.48C109.167 0.506667 109.16 0.540001 109.147 0.580001L106.767 13.4C106.74 13.5733 106.667 13.72 106.547 13.84C106.427 13.9467 106.267 14 106.067 14H104.727C104.527 14 104.367 13.9467 104.247 13.84C104.14 13.7333 104.067 13.62 104.027 13.5L101.787 6.82L99.5465 13.5C99.4932 13.62 99.4132 13.7333 99.3065 13.84C99.1999 13.9467 99.0399 14 98.8265 14H97.4865Z"
      fill="#DBA833"
    />
  </symbol>
</svg>
