<svg display="none" xmlns="http://www.w3.org/2000/svg">
  <symbol fill="none" width="37" height="37" viewBox="0 0 37 37" id="yandex">
    <rect x="1" y="1" width="35" height="35" rx="5" fill="#DBA833" />
    <path
      d="M21.3286 21.3282C19.0239 23.7063 18.8562 26.6711 18.6572 33.1663C24.7124 33.1663 28.8924 33.1454 31.0505 31.0502C33.1458 28.8921 33.1667 24.513 33.1667 18.6568C26.6715 18.8663 23.7067 19.0235 21.3286 21.3282ZM3.83337 18.6568C3.83337 24.513 3.85433 28.8921 5.94956 31.0502C8.10766 33.1454 12.2877 33.1663 18.3429 33.1663C18.1334 26.6711 17.9762 23.7063 15.6715 21.3282C13.2934 19.0235 10.3286 18.8559 3.83337 18.6568ZM18.3429 3.83301C12.2981 3.83301 8.10766 3.85396 5.94956 5.9492C3.85433 8.10729 3.83337 12.4863 3.83337 18.3425C10.3286 18.133 13.2934 17.9759 15.6715 15.6711C17.9762 13.293 18.1439 10.3282 18.3429 3.83301ZM21.3286 15.6711C19.0239 13.293 18.8562 10.3282 18.6572 3.83301C24.7124 3.83301 28.8924 3.85396 31.0505 5.9492C33.1458 8.10729 33.1667 12.4863 33.1667 18.3425C26.6715 18.133 23.7067 17.9759 21.3286 15.6711Z"
      fill="black"
    />
    <path
      d="M33.1667 18.6568V18.3425C26.6715 18.133 23.7067 17.9759 21.3286 15.6711C19.0239 13.293 18.8562 10.3282 18.6572 3.83301H18.3429C18.1334 10.3282 17.9762 13.293 15.6715 15.6711C13.2934 17.9759 10.3286 18.1435 3.83337 18.3425V18.6568C10.3286 18.8663 13.2934 19.0235 15.6715 21.3282C17.9762 23.7063 18.1439 26.6711 18.3429 33.1663H18.6572C18.8667 26.6711 19.0239 23.7063 21.3286 21.3282C23.7067 19.0235 26.6715 18.8559 33.1667 18.6568Z"
      fill="#DBA833"
    />
    <rect
      x="1"
      y="1"
      width="35"
      height="35"
      rx="5"
      stroke="black"
      stroke-width="2"
    />
  </symbol>

  <symbol width="37" height="37" viewBox="0 0 37 37" fill="none" id="vk">
    <rect x="1" y="1" width="35" height="35" rx="5" fill="#DBA833" />
    <path
      d="M29.06 4.63965H7.94001C6.11841 4.63965 4.64001 6.11805 4.64001 7.93965V29.0596C4.64001 30.8812 6.11841 32.3596 7.94001 32.3596H29.06C30.8816 32.3596 32.36 30.8812 32.36 29.0596V7.93965C32.36 6.11805 30.8816 4.63965 29.06 4.63965ZM26.8952 23.7796L24.4334 23.773C24.4334 23.773 24.3806 23.7796 24.2948 23.7796C24.0968 23.7796 23.6876 23.7268 23.2058 23.3968C22.3412 22.7962 21.5162 21.3046 20.8628 21.3046C20.8166 21.3046 20.777 21.3112 20.7374 21.3244C20.1698 21.5026 19.9982 22.0702 19.9982 22.7632C19.9982 23.0074 19.8266 23.1196 19.3646 23.1196H18.0908C16.6652 23.1196 15.2858 23.0866 13.7348 21.3904C11.4512 18.889 9.31281 14.4406 9.31281 14.4406C9.31281 14.4406 9.19401 14.1832 9.31941 14.0314C9.43821 13.8928 9.71541 13.8796 9.82101 13.8796C9.84741 13.8796 9.86061 13.8796 9.86061 13.8796H12.5006C12.5006 13.8796 12.7448 13.9258 12.923 14.0578C13.0748 14.17 13.154 14.3746 13.154 14.3746C13.154 14.3746 13.6028 15.2458 14.1638 16.2292C15.1076 17.8528 15.6158 18.394 15.9788 18.394C16.0382 18.394 16.0976 18.3808 16.157 18.3478C16.6982 18.0508 16.5398 15.6484 16.5398 15.6484C16.5398 15.6484 16.5464 14.7772 16.2626 14.3944C16.0448 14.0908 15.629 14.005 15.4442 13.9786C15.299 13.9588 15.5366 13.6156 15.8534 13.4572C16.2626 13.2592 16.9424 13.2196 17.7608 13.2196H18.1568C18.929 13.2328 18.9488 13.312 19.2524 13.3846C20.1632 13.6024 19.853 14.4538 19.853 16.4932C19.853 17.1466 19.7342 18.064 20.2028 18.3742C20.2358 18.394 20.282 18.4072 20.3414 18.4072C20.645 18.4072 21.2984 18.0178 22.3412 16.2556C22.922 15.2524 23.3708 14.2558 23.3708 14.2558C23.3708 14.2558 23.4698 14.0776 23.6216 13.9852C23.7668 13.8994 23.7668 13.8994 23.9582 13.8994H23.978C24.1892 13.8994 26.288 13.8796 26.75 13.8796H26.8028C27.245 13.8796 27.6476 13.8862 27.7202 14.1568C27.8258 14.566 27.3968 15.2986 26.2682 16.8166C24.407 19.3048 24.1958 19.12 25.7402 20.5588C27.2186 21.9316 27.5222 22.5982 27.575 22.684C28.1888 23.7004 26.8952 23.7796 26.8952 23.7796Z"
      fill="black"
    />
    <rect
      x="1"
      y="1"
      width="35"
      height="35"
      rx="5"
      stroke="black"
      stroke-width="2"
    />
  </symbol>

  <symbol width="37" height="37" viewBox="0 0 37 37" fill="none" id="whatsapp">
    <rect x="1" y="1" width="35" height="35" rx="5" fill="#DBA833" />
    <path
      d="M18.5 5.2998C11.2103 5.2998 5.30005 11.2101 5.30005 18.4998C5.30005 20.9761 5.99562 23.2849 7.18208 25.2652L5.41821 31.6998L11.9903 29.9746C13.9123 31.0674 16.1312 31.6998 18.5 31.6998C25.7897 31.6998 31.7001 25.7895 31.7001 18.4998C31.7001 11.2101 25.7897 5.2998 18.5 5.2998ZM13.9819 12.3424C14.1964 12.3424 14.4168 12.3411 14.6071 12.351C14.8425 12.3565 15.0987 12.3737 15.344 12.916C15.6355 13.5606 16.2702 15.1777 16.3516 15.3416C16.433 15.5055 16.4907 15.6986 16.3774 15.9131C16.2696 16.1331 16.2135 16.2662 16.0551 16.4609C15.8912 16.6501 15.7116 16.8851 15.5631 17.0281C15.3992 17.192 15.23 17.3717 15.4192 17.6984C15.6084 18.0251 16.2655 19.0961 17.2368 19.9607C18.4853 21.0761 19.5387 21.4189 19.8665 21.5828C20.1943 21.7467 20.3841 21.7212 20.5733 21.5012C20.768 21.2867 21.391 20.5507 21.611 20.2229C21.8255 19.8951 22.0445 19.9518 22.3415 20.0596C22.6429 20.1674 24.2502 20.9591 24.578 21.123C24.9058 21.2869 25.1207 21.3681 25.2032 21.5012C25.2879 21.6387 25.288 22.2932 25.0163 23.0566C24.7446 23.8189 23.4104 24.5561 22.812 24.6078C22.2081 24.6639 21.6445 24.8793 18.8868 23.7936C15.5604 22.4835 13.4626 19.0764 13.2987 18.8564C13.1348 18.6419 11.9667 17.0851 11.9667 15.4791C11.9667 13.8676 12.8116 13.0784 13.1075 12.7506C13.4089 12.4228 13.7619 12.3424 13.9819 12.3424Z"
      fill="black"
    />
    <rect
      x="1"
      y="1"
      width="35"
      height="35"
      rx="5"
      stroke="black"
      stroke-width="2"
    />
  </symbol>

  <symbol width="35" height="35" viewBox="0 0 35 35" fill="none" id="telegram">
    <rect x="1" y="1" width="33" height="33" rx="5" fill="#DBA833" />
    <path
      d="M30.6049 6.06163C30.1399 5.66731 29.4096 5.61089 28.6544 5.91407H28.6532C27.859 6.23275 6.17136 15.5352 5.28848 15.9153C5.1279 15.9711 3.72546 16.4944 3.86992 17.66C3.99888 18.7109 5.12604 19.1461 5.26368 19.1963L10.7773 21.0842C11.1431 22.3019 12.4916 26.7944 12.7899 27.7542C12.9759 28.3525 13.279 29.1387 13.8104 29.3005C14.2766 29.4803 14.7404 29.316 15.0405 29.0804L18.4114 25.9537L23.8531 30.1976L23.9827 30.2751C24.3522 30.4388 24.7063 30.5206 25.0442 30.5206C25.3052 30.5206 25.5557 30.4717 25.795 30.3737C26.6103 30.0389 26.9364 29.262 26.9705 29.174L31.0352 8.04625C31.2832 6.91785 30.9385 6.34373 30.6049 6.06163ZM15.64 21.8394L13.78 26.7994L11.92 20.5994L26.18 10.0594L15.64 21.8394Z"
      fill="black"
    />
    <rect
      x="1"
      y="1"
      width="33"
      height="33"
      rx="5"
      stroke="black"
      stroke-width="2"
    />
  </symbol>

  <symbol width="21" height="25" viewBox="0 0 21 25" fill="none" id="door">
    <path
      d="M3.98958 3.125C2.41678 3.125 1.125 4.41678 1.125 5.98958V19.0104C1.125 20.5832 2.41678 21.875 3.98958 21.875H13.3646C14.9374 21.875 16.2292 20.5832 16.2292 19.0104C16.2306 18.9069 16.2115 18.8041 16.1729 18.708C16.1343 18.612 16.077 18.5245 16.0043 18.4508C15.9316 18.3771 15.845 18.3185 15.7495 18.2786C15.654 18.2386 15.5515 18.218 15.4479 18.218C15.3444 18.218 15.2419 18.2386 15.1464 18.2786C15.0509 18.3185 14.9642 18.3771 14.8915 18.4508C14.8188 18.5245 14.7615 18.612 14.7229 18.708C14.6843 18.8041 14.6652 18.9069 14.6667 19.0104C14.6667 19.7387 14.0928 20.3125 13.3646 20.3125H3.98958C3.26134 20.3125 2.6875 19.7387 2.6875 19.0104V5.98958C2.6875 5.26134 3.26134 4.6875 3.98958 4.6875H13.3646C14.0928 4.6875 14.6667 5.26134 14.6667 5.98958C14.6652 6.09311 14.6843 6.19589 14.7229 6.29196C14.7615 6.38803 14.8188 6.47547 14.8915 6.54919C14.9642 6.62292 15.0509 6.68146 15.1464 6.72142C15.2419 6.76138 15.3444 6.78196 15.4479 6.78196C15.5515 6.78196 15.654 6.76138 15.7495 6.72142C15.845 6.68146 15.9316 6.62292 16.0043 6.54919C16.077 6.47547 16.1343 6.38803 16.1729 6.29196C16.2115 6.19589 16.2306 6.09311 16.2292 5.98958C16.2292 4.41678 14.9374 3.125 13.3646 3.125H3.98958ZM15.4398 8.06478C15.2843 8.06482 15.1324 8.11124 15.0034 8.19811C14.8745 8.28498 14.7744 8.40835 14.7159 8.55243C14.6575 8.69651 14.6434 8.85475 14.6754 9.0069C14.7074 9.15905 14.784 9.2982 14.8955 9.40653L17.2078 11.7188H6.07292C5.96939 11.7173 5.86661 11.7364 5.77054 11.775C5.67447 11.8136 5.58703 11.8709 5.51331 11.9436C5.43958 12.0163 5.38104 12.1029 5.34108 12.1984C5.30112 12.294 5.28054 12.3965 5.28054 12.5C5.28054 12.6035 5.30112 12.706 5.34108 12.8016C5.38104 12.8971 5.43958 12.9837 5.51331 13.0564C5.58703 13.1291 5.67447 13.1864 5.77054 13.225C5.86661 13.2636 5.96939 13.2827 6.07292 13.2812H17.2078L14.8955 15.5935C14.8206 15.6655 14.7607 15.7517 14.7195 15.8471C14.6782 15.9425 14.6565 16.0452 14.6554 16.1491C14.6543 16.2531 14.674 16.3562 14.7133 16.4524C14.7526 16.5486 14.8107 16.636 14.8842 16.7095C14.9577 16.783 15.0451 16.8411 15.1414 16.8804C15.2376 16.9197 15.3407 16.9394 15.4446 16.9384C15.5486 16.9373 15.6512 16.9155 15.7467 16.8743C15.8421 16.833 15.9283 16.7732 16.0003 16.6982L19.6461 13.0524C19.7926 12.9058 19.8748 12.7072 19.8748 12.5C19.8748 12.2928 19.7926 12.0941 19.6461 11.9476L16.0003 8.3018C15.9275 8.22681 15.8403 8.16719 15.7441 8.12647C15.6478 8.08576 15.5443 8.06478 15.4398 8.06478Z"
      fill="white"
    />
  </symbol>
</svg>
